<svg width="130" height="32" viewBox="0 0 130 32" fill="none" xmlns="http://www.w3.org/2000/svg">
<path d="M23.4063 3.45738C22.1824 2.34334 20.7291 1.4982 19.0845 0.883555C17.4017 0.268909 15.6042 0 13.6154 0C9.59963 0 6.387 1.15246 3.90105 3.49579C1.7593 5.53181 0.458947 8.14405 0.114738 11.3325C0.0382467 11.9472 0 12.5618 0 13.1765C0 15.8271 0.688421 18.401 2.02701 20.9364C3.8628 24.3553 6.65472 27.006 10.3645 28.9268C14.1891 30.886 18.7021 31.8847 23.827 31.8847V29.2725C21.7235 29.2725 19.8494 29.2341 18.2431 29.1188C16.6368 29.0036 15.1452 28.8499 13.8066 28.581C12.468 28.3121 11.3207 28.0048 10.4028 27.6591C9.44665 27.3133 8.64349 26.8139 7.91683 26.1993C7.19016 25.5846 6.61648 24.9316 6.19578 24.2017C5.77508 23.4718 5.39262 22.6266 5.1249 21.5894C4.85718 20.5522 4.66595 19.4766 4.55122 18.3241C4.43648 17.1717 4.39824 15.8655 4.39824 14.3289C4.39824 12.6002 4.47473 11.0636 4.66596 9.75751C4.81894 8.45138 5.1249 7.18367 5.5456 6.03121C5.9663 4.87875 6.50174 3.91837 7.19016 3.18848C7.87858 2.45858 8.75823 1.84394 9.8291 1.42137C10.9 0.998798 12.1621 0.768307 13.6154 0.768307C15.0687 0.768307 16.2926 0.998798 17.4017 1.42137C18.4726 1.84394 19.3522 2.42017 20.0407 3.15006C20.7291 3.87995 21.2645 4.7635 21.6852 5.83913C22.1059 6.91476 22.4119 8.02881 22.5649 9.21968C22.7178 10.4106 22.8326 11.7167 22.8326 13.1381C22.8326 14.9436 22.6796 16.5186 22.4119 17.9016C22.1442 19.2845 21.6852 20.5906 21.035 21.7431C20.3849 22.934 19.467 23.8175 18.2814 24.4706C17.0958 25.1236 15.6424 25.4694 13.9596 25.5078V26.3145C15.8719 26.2761 17.6312 25.9688 19.2757 25.3541C20.9203 24.7395 22.2971 23.8944 23.4828 22.7803C24.6684 21.6663 25.5863 20.2833 26.2364 18.6314C26.8866 16.9796 27.2308 15.1357 27.2308 13.1381C27.2308 11.102 26.8866 9.21969 26.1982 7.56783C25.548 5.95438 24.5919 4.57143 23.4063 3.45738Z" fill="url(#paint0_linear_140_5357)"/>
<path d="M51.096 17.1333V0H49.9869V17.479C49.9869 19.7455 49.1837 21.551 47.5774 22.934C45.9711 24.3169 43.8293 25.0084 41.1904 25.0084C39.0869 25.0084 37.4041 24.2401 36.1037 22.6651C34.8034 21.09 34.1915 19.054 34.1915 16.4802V0H29.908V17.5942C29.908 20.0528 30.9406 22.012 33.0058 23.5486C35.0711 25.0852 37.7865 25.8151 41.1904 25.8151C44.1735 25.8151 46.5448 25.0084 48.3806 23.4334C50.2163 21.8199 51.096 19.7455 51.096 17.1333Z" fill="url(#paint1_linear_140_5357)"/>
<path d="M76.1851 12.8307C76.1851 8.9892 74.9995 5.87755 72.59 3.53421C70.1805 1.19088 67.0444 0 63.1433 0H53.7732V25.623H63.1433C67.0444 25.5846 70.2188 24.3938 72.59 22.0504C74.9612 19.7071 76.1851 16.6339 76.1851 12.8307ZM61.7283 24.3169H58.4009V1.26771H61.7283C64.5584 1.26771 66.8532 2.30492 68.536 4.37935C70.257 6.49219 71.0984 9.29652 71.0984 12.7539C71.0984 16.2497 70.2188 19.0924 68.536 21.1669C66.8532 23.2797 64.5967 24.3169 61.7283 24.3169Z" fill="url(#paint2_linear_140_5357)"/>
<path d="M98.9412 17.479C98.9412 19.7455 98.138 21.551 96.5317 22.934C94.9254 24.3169 92.7837 25.0084 90.1447 25.0084C88.0412 25.0084 86.3584 24.2401 85.0581 22.6651C83.7577 21.09 83.1458 19.054 83.1458 16.4802V0H78.8623V17.5942C78.8623 20.0528 79.8949 22.012 81.9602 23.5486C84.0255 25.0852 86.7409 25.8151 90.1447 25.8151C93.1279 25.8151 95.4991 25.0084 97.3349 23.4334C99.1707 21.8583 100.05 19.7455 100.05 17.1717V0.0384119H98.9412V17.479Z" fill="url(#paint3_linear_140_5357)"/>
<path d="M129.92 11.3325C129.537 8.18247 128.275 5.57022 126.134 3.49579C123.686 1.15246 120.435 0 116.419 0C114.43 0 112.633 0.307324 110.95 0.883555C109.267 1.4982 107.852 2.34334 106.628 3.45738C105.404 4.57143 104.448 5.95438 103.76 7.64466C103.072 9.33494 102.727 11.1789 102.727 13.2149C102.727 15.2509 103.072 17.0948 103.722 18.7083C104.372 20.3601 105.328 21.7431 106.475 22.8571C107.623 23.9712 109.076 24.8163 110.682 25.431C112.289 26.0456 114.086 26.3529 115.998 26.3914V25.5846C114.316 25.5462 112.862 25.2005 111.677 24.5474C110.491 23.8944 109.573 22.9724 108.923 21.8199C108.273 20.6291 107.814 19.3613 107.546 17.9784C107.279 16.5954 107.126 15.0204 107.126 13.2149C107.126 11.7551 107.202 10.449 107.393 9.29652C107.546 8.10564 107.852 6.99159 108.273 5.91596C108.694 4.84033 109.267 3.91836 109.917 3.22689C110.606 2.497 111.486 1.92077 112.556 1.4982C113.627 1.07563 114.889 0.845137 116.343 0.845137C117.796 0.845137 119.058 1.07563 120.129 1.4982C121.2 1.92077 122.08 2.497 122.768 3.26531C123.456 3.9952 124.03 4.95558 124.413 6.10804C124.795 7.2605 125.139 8.48979 125.292 9.83433C125.445 11.1405 125.56 12.6771 125.56 14.4058C125.56 15.9424 125.522 17.2869 125.407 18.401C125.292 19.5534 125.101 20.6291 124.833 21.6663C124.565 22.7035 124.221 23.587 123.762 24.2785C123.342 25.0084 122.73 25.6615 122.041 26.2761C121.353 26.8908 120.473 27.3517 119.555 27.7359C118.599 28.0816 117.49 28.4274 116.151 28.6579C114.813 28.8883 113.36 29.1188 111.715 29.1957C110.07 29.2725 108.235 29.3493 106.131 29.3493V32C111.294 32 115.769 31.0012 119.594 29.042C123.303 27.1212 126.095 24.4706 127.931 21.0516C129.308 18.5162 129.958 15.9424 129.958 13.2917C130.035 12.5618 129.996 11.9472 129.92 11.3325Z" fill="url(#paint4_linear_140_5357)"/>
<defs>
<linearGradient id="paint0_linear_140_5357" x1="13.8157" y1="-54.3497" x2="13.4316" y2="53.5481" gradientUnits="userSpaceOnUse">
<stop stop-color="#6DCEF5"/>
<stop offset="1" stop-color="#0071BB"/>
</linearGradient>
<linearGradient id="paint1_linear_140_5357" x1="40.6578" y1="-44.0036" x2="40.3342" y2="43.3546" gradientUnits="userSpaceOnUse">
<stop stop-color="#6DCEF5"/>
<stop offset="1" stop-color="#0071BB"/>
</linearGradient>
<linearGradient id="paint2_linear_140_5357" x1="65.144" y1="-43.6762" x2="64.8426" y2="43.0321" gradientUnits="userSpaceOnUse">
<stop stop-color="#6DCEF5"/>
<stop offset="1" stop-color="#0071BB"/>
</linearGradient>
<linearGradient id="paint3_linear_140_5357" x1="89.6121" y1="-44.0036" x2="89.2886" y2="43.3546" gradientUnits="userSpaceOnUse">
<stop stop-color="#6DCEF5"/>
<stop offset="1" stop-color="#0071BB"/>
</linearGradient>
<linearGradient id="paint4_linear_140_5357" x1="116.564" y1="-54.5462" x2="116.178" y2="53.7417" gradientUnits="userSpaceOnUse">
<stop stop-color="#6DCEF5"/>
<stop offset="1" stop-color="#0071BB"/>
</linearGradient>
</defs>
</svg>
